<svg width="449" height="379" viewBox="0 0 449 379" fill="none" xmlns="http://www.w3.org/2000/svg">
<g clip-path="url(#clip0_29_395)">
<path d="M122.873 289.634C133.013 293.516 143.821 299.389 149.298 309.184C154.576 318.626 152.518 329.513 146.771 338.225C139.854 348.706 129.068 355.889 117.854 361.138C105.086 367.115 91.4298 370.99 77.7553 374.284C70.8204 375.956 63.8473 377.466 56.8742 378.969C55.4193 379.283 54.7966 377.054 56.2565 376.739C70.319 373.708 84.4218 370.668 98.135 366.28C110.825 362.22 123.811 357.02 134.203 348.494C142.61 341.597 150.604 331.525 150.107 320.069C149.607 308.522 139.895 300.46 130.375 295.498" fill="#D6D6E3"/>
<path d="M191.092 284.927C211.716 284.927 228.435 268.251 228.435 247.68C228.435 227.108 211.716 210.432 191.092 210.432C170.467 210.432 153.748 227.108 153.748 247.68C153.748 268.251 170.467 284.927 191.092 284.927Z" fill="#6C63FF"/>
<path opacity="0.2" d="M163.518 222.8C160.034 230.927 159.562 240.025 162.184 248.468C164.807 256.911 170.354 264.148 177.834 268.887C185.315 273.626 194.241 275.558 203.018 274.336C211.794 273.115 219.85 268.821 225.744 262.221C223.616 267.187 220.432 271.632 216.411 275.248C212.39 278.863 207.629 281.564 202.457 283.163C197.286 284.761 191.828 285.219 186.461 284.504C181.095 283.79 175.949 281.92 171.378 279.025C166.808 276.13 162.924 272.278 159.995 267.737C157.065 263.196 155.161 258.074 154.413 252.726C153.665 247.377 154.092 241.931 155.664 236.764C157.237 231.596 159.916 226.832 163.518 222.8Z" fill="black"/>
<path d="M191.194 247.678H191.296L193.143 353.281H189.244L191.194 247.678Z" fill="#CBCBCB"/>
<path d="M256.155 232.351C280.997 232.351 301.135 212.265 301.135 187.487C301.135 162.709 280.997 142.623 256.155 142.623C231.313 142.623 211.175 162.709 211.175 187.487C211.175 212.265 231.313 232.351 256.155 232.351Z" fill="#6C63FF"/>
<path opacity="0.2" d="M289.367 157.523C293.563 167.312 294.131 178.27 290.972 188.439C287.813 198.608 281.132 207.325 272.122 213.033C263.113 218.74 252.362 221.067 241.791 219.596C231.219 218.126 221.517 212.954 214.417 205.006C216.98 210.986 220.816 216.34 225.659 220.695C230.502 225.05 236.237 228.303 242.466 230.228C248.694 232.153 255.268 232.704 261.732 231.844C268.195 230.983 274.394 228.731 279.899 225.244C285.403 221.757 290.082 217.118 293.61 211.648C297.139 206.179 299.433 200.009 300.333 193.568C301.234 187.126 300.72 180.566 298.826 174.342C296.933 168.118 293.705 162.379 289.367 157.523Z" fill="black"/>
<path d="M256.031 187.488H255.908L253.683 314.686H258.379L256.031 187.488Z" fill="#CBCBCB"/>
<path d="M172.655 145.463L178.762 140.591C174.017 140.069 172.068 142.649 171.27 144.692C167.564 143.157 163.528 145.169 163.528 145.169L175.748 149.593C175.131 147.951 174.058 146.519 172.655 145.463Z" fill="#D6D6E3"/>
<path d="M157.26 103.422L163.368 98.5498C158.623 98.0279 156.673 100.609 155.876 102.652C152.17 101.116 148.134 103.128 148.134 103.128L160.353 107.552C159.737 105.91 158.664 104.477 157.26 103.422V103.422Z" fill="#6C63FF"/>
<path d="M243.776 130.603L249.884 125.731C245.139 125.209 243.19 127.789 242.392 129.832C238.686 128.297 234.65 130.309 234.65 130.309L246.87 134.733C246.253 133.091 245.18 131.659 243.776 130.603Z" fill="#D6D6E3"/>
<path d="M237.74 314.491C237.74 314.491 237.974 309.607 242.765 310.175Z" fill="#CBCBCB"/>
<path d="M270.283 314.491C270.283 314.491 270.517 309.607 275.307 310.175Z" fill="#CBCBCB"/>
<path d="M260.809 314.491C260.809 314.491 261.042 309.607 265.833 310.175Z" fill="#CBCBCB"/>
<path d="M229.024 314.491C229.024 314.491 228.79 309.607 224 310.175Z" fill="#CBCBCB"/>
<path d="M249.328 314.828C249.328 314.828 249.094 309.944 244.304 310.512Z" fill="#CBCBCB"/>
<path d="M174.802 352.854C174.802 352.854 175.036 347.97 179.826 348.538Z" fill="#CBCBCB"/>
<path d="M207.345 352.854C207.345 352.854 207.578 347.97 212.369 348.538Z" fill="#CBCBCB"/>
<path d="M197.869 352.854C197.869 352.854 198.103 347.97 202.893 348.538Z" fill="#CBCBCB"/>
<path d="M166.086 352.854C166.086 352.854 165.852 347.97 161.062 348.538Z" fill="#CBCBCB"/>
<path d="M186.39 353.192C186.39 353.192 186.156 348.308 181.365 348.876Z" fill="#CBCBCB"/>
<path d="M309.587 178.813L308.667 178.1L332.239 147.827H363.068V148.99H332.81L309.587 178.813Z" fill="#3F3D56"/>
<path d="M63.9953 222.74L63.2263 260.495L86.7403 279.487L86.0067 280.391L62.0507 261.041L62.0563 260.758L62.8307 222.716L63.9953 222.74Z" fill="#3F3D56"/>
<path d="M157.381 81.1685L156.461 80.4561L180.033 50.1827H210.862V51.3454H180.604L157.381 81.1685Z" fill="#3F3D56"/>
<path d="M88.6145 284.831C98.8189 289.918 105.031 296.637 105.031 304.006C105.031 319.881 76.2314 332.749 40.705 332.749C25.2591 332.749 11.0888 330.315 0 326.26C11.7778 332.132 28.8745 335.829 47.9095 335.829C83.4353 335.829 112.236 322.96 112.236 307.086C112.236 298.114 103.031 290.102 88.6145 284.831Z" fill="#F1F1F1"/>
<path d="M111.312 295.736C122.826 301.476 129.837 309.057 129.837 317.372C129.837 335.285 97.3394 349.806 57.252 349.806C39.8235 349.806 23.834 347.059 11.3224 342.484C24.6122 349.109 43.9038 353.281 65.3824 353.281C105.469 353.281 137.967 338.76 137.967 320.847C137.966 310.723 127.579 301.683 111.312 295.736Z" fill="#F1F1F1"/>
<path d="M79.9277 289.634C87.1147 293.218 91.4944 297.951 91.4944 303.143C91.4944 314.327 71.2039 323.394 46.175 323.394C36.4239 323.52 26.7236 321.973 17.4976 318.822C25.7953 322.959 37.8403 325.563 51.2509 325.563C76.2797 325.563 96.5702 316.497 96.5702 305.313C96.5696 298.991 90.0845 293.348 79.9277 289.634Z" fill="#F1F1F1"/>
<path d="M222.159 110.57C221.788 109.359 221.071 108.284 220.095 107.475C219.119 106.665 217.927 106.159 216.666 106.016C216.638 106.012 216.61 106.016 216.583 106.016C216.546 106.005 216.508 105.996 216.47 105.991C210.47 105.217 203.544 108.079 201.043 113.753C200.433 112.923 199.63 112.254 198.702 111.803C197.775 111.353 196.751 111.134 195.72 111.166C194.39 111.254 193.12 111.749 192.083 112.583C191.045 113.417 190.29 114.55 189.921 115.828C189.882 115.984 189.893 116.148 189.954 116.297C190.015 116.447 190.121 116.573 190.258 116.658C190.655 116.992 191.124 117.23 191.629 117.351C192.719 117.582 193.812 117.793 194.91 117.984C197.051 118.358 199.204 118.66 201.367 118.891C205.759 119.36 210.178 119.527 214.594 119.389C216.064 119.343 217.483 119.295 218.83 118.648C219.81 118.165 220.647 117.436 221.26 116.533C221.837 115.665 222.217 114.681 222.372 113.651C222.528 112.621 222.455 111.569 222.159 110.57Z" fill="#F0F0F0"/>
<path d="M441.756 130.31H396.785C395.57 130.31 394.585 131.292 394.585 132.504C394.585 133.715 395.57 134.697 396.785 134.697H441.756C442.971 134.697 443.956 133.715 443.956 132.504C443.956 131.292 442.971 130.31 441.756 130.31Z" fill="#3F3D56"/>
<path d="M441.756 146.473H396.785C395.57 146.473 394.585 147.456 394.585 148.667C394.585 149.879 395.57 150.861 396.785 150.861H441.756C442.971 150.861 443.956 149.879 443.956 148.667C443.956 147.456 442.971 146.473 441.756 146.473Z" fill="#3F3D56"/>
<path d="M441.756 160.955H396.785C395.57 160.955 394.585 161.937 394.585 163.149C394.585 164.36 395.57 165.343 396.785 165.343H441.756C442.971 165.343 443.956 164.36 443.956 163.149C443.956 161.937 442.971 160.955 441.756 160.955Z" fill="#3F3D56"/>
<path d="M376.015 132.504C376.015 131.371 376.351 130.264 376.981 129.322C377.612 128.381 378.508 127.646 379.557 127.213C380.606 126.779 381.76 126.665 382.874 126.886C383.987 127.107 385.01 127.652 385.813 128.452C386.616 129.253 387.163 130.273 387.385 131.384C387.606 132.494 387.493 133.646 387.058 134.692C386.624 135.738 385.888 136.633 384.944 137.262C384 137.891 382.89 138.227 381.755 138.227C380.234 138.225 378.775 137.622 377.699 136.549C376.623 135.476 376.017 134.021 376.015 132.504Z" fill="#6C63FF"/>
<path d="M376.015 148.668C376.015 147.536 376.352 146.429 376.982 145.487C377.613 144.546 378.51 143.812 379.558 143.379C380.607 142.945 381.761 142.832 382.875 143.053C383.988 143.274 385.011 143.819 385.814 144.62C386.617 145.421 387.163 146.441 387.385 147.551C387.606 148.662 387.493 149.813 387.058 150.859C386.624 151.905 385.888 152.799 384.944 153.429C384 154.058 382.89 154.393 381.755 154.393C380.233 154.392 378.774 153.788 377.698 152.715C376.622 151.641 376.017 150.186 376.015 148.668Z" fill="#6C63FF"/>
<path d="M376.015 163.15C376.015 162.017 376.352 160.91 376.982 159.969C377.613 159.027 378.51 158.294 379.558 157.86C380.607 157.427 381.761 157.313 382.875 157.534C383.988 157.755 385.011 158.301 385.814 159.101C386.617 159.902 387.163 160.922 387.385 162.033C387.606 163.143 387.493 164.294 387.058 165.341C386.624 166.387 385.888 167.281 384.944 167.91C384 168.539 382.89 168.875 381.755 168.875C380.233 168.873 378.774 168.27 377.698 167.196C376.622 166.123 376.017 164.668 376.015 163.15Z" fill="#6C63FF"/>
<path d="M373.108 98.299C372.455 98.6965 371.916 99.2548 371.541 99.9202C371.167 100.586 370.97 101.336 370.969 102.099V102.754H371.495V102.099C371.496 101.232 371.784 100.39 372.313 99.7031C372.843 99.0161 373.585 98.5225 374.424 98.299H373.108ZM437.619 97.6437H375.436C374.252 97.645 373.117 98.1148 372.279 98.9501C371.442 99.7853 370.971 100.918 370.969 102.099V193.553C370.971 194.734 371.442 195.866 372.28 196.701C373.117 197.537 374.252 198.006 375.436 198.008H444.534C445.719 198.006 446.854 197.537 447.691 196.701C448.528 195.866 448.999 194.734 449.001 193.553V107.78L437.619 97.6437ZM448.475 193.554C448.474 194.596 448.058 195.595 447.319 196.332C446.58 197.069 445.579 197.484 444.534 197.485H375.436C374.391 197.484 373.39 197.069 372.651 196.332C371.912 195.595 371.496 194.596 371.495 193.554V102.1C371.496 101.233 371.784 100.391 372.313 99.7042C372.843 99.0172 373.585 98.5237 374.424 98.3001C374.754 98.2124 375.094 98.1684 375.435 98.169H437.419L448.475 108.014V193.554ZM373.108 98.299C372.455 98.6965 371.916 99.2548 371.541 99.9202C371.167 100.586 370.97 101.336 370.969 102.099V102.754H371.495V102.099C371.496 101.232 371.784 100.39 372.313 99.7031C372.843 99.0161 373.585 98.5225 374.424 98.299H373.108Z" fill="#3F3D56"/>
<path d="M448.738 108.126H441.644C440.46 108.125 439.325 107.655 438.487 106.82C437.65 105.985 437.179 104.852 437.177 103.671V97.9058C437.177 97.8363 437.205 97.7696 437.254 97.7205C437.303 97.6713 437.37 97.6437 437.44 97.6437C437.51 97.6437 437.577 97.6713 437.626 97.7205C437.675 97.7696 437.703 97.8363 437.703 97.9058V103.671C437.704 104.713 438.12 105.712 438.858 106.449C439.597 107.186 440.599 107.601 441.644 107.602H448.738C448.772 107.602 448.806 107.609 448.838 107.622C448.87 107.635 448.899 107.654 448.924 107.679C448.948 107.703 448.967 107.732 448.98 107.764C448.994 107.795 449 107.829 449 107.864C449 107.898 448.994 107.932 448.98 107.964C448.967 107.996 448.948 108.025 448.924 108.049C448.899 108.074 448.87 108.093 448.838 108.106C448.806 108.119 448.772 108.126 448.738 108.126Z" fill="#3F3D56"/>
<path d="M294.787 32.6659H249.816C248.601 32.6659 247.616 33.6482 247.616 34.8598C247.616 36.0715 248.601 37.0538 249.816 37.0538H294.787C296.002 37.0538 296.987 36.0715 296.987 34.8598C296.987 33.6482 296.002 32.6659 294.787 32.6659Z" fill="#3F3D56"/>
<path d="M294.787 48.8297H249.816C248.601 48.8297 247.616 49.812 247.616 51.0236C247.616 52.2353 248.601 53.2176 249.816 53.2176H294.787C296.002 53.2176 296.987 52.2353 296.987 51.0236C296.987 49.812 296.002 48.8297 294.787 48.8297Z" fill="#3F3D56"/>
<path d="M294.787 63.3112H249.816C248.601 63.3112 247.616 64.2934 247.616 65.5051C247.616 66.7168 248.601 67.6991 249.816 67.6991H294.787C296.002 67.6991 296.987 66.7168 296.987 65.5051C296.987 64.2934 296.002 63.3112 294.787 63.3112Z" fill="#3F3D56"/>
<path d="M229.046 34.8601C229.045 33.7277 229.382 32.6205 230.012 31.6787C230.643 30.7369 231.539 30.0027 232.588 29.5691C233.637 29.1354 234.791 29.0217 235.904 29.2424C237.018 29.463 238.041 30.0081 238.844 30.8087C239.647 31.6093 240.194 32.6294 240.416 33.7401C240.637 34.8508 240.524 36.002 240.089 37.0483C239.655 38.0946 238.919 38.9889 237.975 39.6181C237.031 40.2473 235.921 40.5831 234.786 40.5831C233.264 40.5815 231.806 39.9781 230.73 38.9052C229.654 37.8324 229.048 36.3777 229.046 34.8601Z" fill="#6C63FF"/>
<path d="M229.046 51.0245C229.046 49.8921 229.382 48.7852 230.013 47.8437C230.644 46.9022 231.54 46.1684 232.589 45.735C233.638 45.3017 234.792 45.1883 235.906 45.4092C237.019 45.6301 238.042 46.1754 238.845 46.9761C239.647 47.7768 240.194 48.7969 240.416 49.9075C240.637 51.0181 240.523 52.1693 240.089 53.2154C239.655 54.2616 238.919 55.1558 237.975 55.7849C237.031 56.414 235.921 56.7497 234.786 56.7497C233.264 56.7481 231.805 56.1444 230.729 55.0711C229.653 53.9977 229.047 52.5424 229.046 51.0245Z" fill="#6C63FF"/>
<path d="M229.046 65.5059C229.046 64.3736 229.382 63.2667 230.013 62.3252C230.644 61.3836 231.54 60.6498 232.589 60.2165C233.638 59.7832 234.792 59.6698 235.906 59.8907C237.019 60.1116 238.042 60.6569 238.845 61.4576C239.647 62.2583 240.194 63.2784 240.416 64.389C240.637 65.4996 240.523 66.6508 240.089 67.6969C239.655 68.7431 238.919 69.6372 237.975 70.2663C237.031 70.8954 235.921 71.2312 234.786 71.2312C233.264 71.2296 231.805 70.6259 230.729 69.5525C229.653 68.4792 229.047 67.0239 229.046 65.5059Z" fill="#6C63FF"/>
<path d="M226.139 0.65524C225.486 1.0528 224.946 1.61105 224.572 2.27644C224.197 2.94183 224 3.69203 224 4.4551V5.11033H224.526V4.4551C224.527 3.58849 224.814 2.74639 225.344 2.05939C225.874 1.37238 226.616 0.878826 227.455 0.65524H226.139ZM290.65 -1.14441e-05H228.467C227.283 0.00132261 226.147 0.471134 225.31 1.30634C224.473 2.14154 224.002 3.27394 224 4.4551V95.9093C224.002 97.0903 224.473 98.2226 225.31 99.0577C226.148 99.8929 227.283 100.363 228.467 100.364H297.565C298.749 100.363 299.884 99.8929 300.722 99.0577C301.559 98.2226 302.03 97.0903 302.032 95.9093V10.1361L290.65 -1.14441e-05ZM301.506 95.9104C301.505 96.9526 301.089 97.9517 300.35 98.6887C299.611 99.4256 298.609 99.8401 297.565 99.8413H228.467C227.422 99.8401 226.42 99.4256 225.681 98.6887C224.943 97.9517 224.527 96.9526 224.526 95.9104V4.45621C224.527 3.5896 224.814 2.74752 225.344 2.06051C225.874 1.3735 226.616 0.879954 227.455 0.656368C227.785 0.568735 228.125 0.52467 228.466 0.525315H290.45L301.506 10.3708V95.9104ZM226.139 0.65524C225.486 1.0528 224.946 1.61105 224.572 2.27644C224.197 2.94183 224 3.69203 224 4.4551V5.11033H224.526V4.4551C224.527 3.58849 224.814 2.74639 225.344 2.05939C225.874 1.37238 226.616 0.878826 227.455 0.65524H226.139Z" fill="#3F3D56"/>
<path d="M301.768 10.4822H294.675C293.49 10.4809 292.355 10.0112 291.518 9.17608C290.681 8.341 290.209 7.20874 290.208 6.02768V0.2621C290.208 0.192587 290.236 0.125918 290.285 0.0767651C290.334 0.0276123 290.401 -7.62939e-06 290.471 -7.62939e-06C290.54 -7.62939e-06 290.607 0.0276123 290.657 0.0767651C290.706 0.125918 290.734 0.192587 290.734 0.2621V6.02713C290.735 7.06931 291.15 8.06846 291.889 8.80539C292.628 9.54233 293.63 9.95684 294.675 9.95803H301.768C301.803 9.95803 301.837 9.96482 301.869 9.97799C301.901 9.99116 301.93 10.0105 301.954 10.0348C301.979 10.0591 301.998 10.088 302.011 10.1198C302.024 10.1516 302.031 10.1857 302.031 10.2201C302.031 10.2546 302.024 10.2886 302.011 10.3204C301.998 10.3522 301.979 10.3811 301.954 10.4055C301.93 10.4298 301.901 10.4491 301.869 10.4623C301.837 10.4755 301.803 10.4822 301.768 10.4822Z" fill="#3F3D56"/>
<path d="M96.2154 150.022H51.2442C50.0292 150.022 49.0443 151.004 49.0443 152.216C49.0443 153.427 50.0292 154.41 51.2442 154.41H96.2154C97.4303 154.41 98.4153 153.427 98.4153 152.216C98.4153 151.004 97.4303 150.022 96.2154 150.022Z" fill="#3F3D56"/>
<path d="M96.2154 166.186H51.2442C50.0292 166.186 49.0443 167.168 49.0443 168.38C49.0443 169.591 50.0292 170.574 51.2442 170.574H96.2154C97.4303 170.574 98.4153 169.591 98.4153 168.38C98.4153 167.168 97.4303 166.186 96.2154 166.186Z" fill="#3F3D56"/>
<path d="M96.2154 180.667H51.2442C50.0292 180.667 49.0443 181.649 49.0443 182.861C49.0443 184.073 50.0292 185.055 51.2442 185.055H96.2154C97.4303 185.055 98.4153 184.073 98.4153 182.861C98.4153 181.649 97.4303 180.667 96.2154 180.667Z" fill="#3F3D56"/>
<path d="M30.4742 152.216C30.4737 151.084 30.81 149.976 31.4405 149.035C32.0709 148.093 32.9673 147.359 34.0161 146.925C35.0649 146.491 36.2191 146.378 37.3327 146.598C38.4463 146.819 39.4694 147.364 40.2723 148.165C41.0753 148.965 41.6223 149.985 41.8439 151.096C42.0656 152.207 41.952 153.358 41.5176 154.404C41.0832 155.451 40.3475 156.345 39.4035 156.974C38.4595 157.603 37.3497 157.939 36.2143 157.939C34.6928 157.937 33.2341 157.334 32.158 156.261C31.082 155.188 30.4764 153.734 30.4742 152.216Z" fill="#6C63FF"/>
<path d="M30.4742 168.38C30.4742 167.248 30.8108 166.141 31.4416 165.2C32.0723 164.258 32.9688 163.524 34.0176 163.091C35.0665 162.658 36.2206 162.544 37.3341 162.765C38.4476 162.986 39.4704 163.531 40.2731 164.332C41.0759 165.133 41.6226 166.153 41.8441 167.263C42.0655 168.374 41.9519 169.525 41.5174 170.571C41.083 171.618 40.3473 172.512 39.4033 173.141C38.4594 173.77 37.3496 174.106 36.2143 174.106C34.6924 174.104 33.2334 173.5 32.1572 172.427C31.0811 171.354 30.4758 169.898 30.4742 168.38Z" fill="#6C63FF"/>
<path d="M30.4742 182.862C30.4742 181.73 30.8108 180.623 31.4416 179.681C32.0723 178.74 32.9688 178.006 34.0176 177.572C35.0665 177.139 36.2206 177.026 37.3341 177.247C38.4476 177.468 39.4704 178.013 40.2731 178.813C41.0759 179.614 41.6226 180.634 41.8441 181.745C42.0655 182.856 41.9519 184.007 41.5174 185.053C41.083 186.099 40.3473 186.993 39.4033 187.622C38.4594 188.251 37.3496 188.587 36.2143 188.587C34.6924 188.586 33.2334 187.982 32.1572 186.908C31.0811 185.835 30.4758 184.38 30.4742 182.862Z" fill="#6C63FF"/>
<path d="M27.5674 118.011C26.9144 118.409 26.3747 118.967 26.0002 119.632C25.6257 120.298 25.4289 121.048 25.4286 121.811V122.466H25.9542V121.811C25.9552 120.944 26.2428 120.102 26.7724 119.415C27.302 118.728 28.044 118.235 28.8835 118.011H27.5674ZM92.0783 117.356H29.8953C28.7111 117.357 27.5757 117.827 26.7384 118.662C25.901 119.497 25.43 120.63 25.4286 121.811V213.265C25.4303 214.446 25.9014 215.578 26.7387 216.414C27.576 217.249 28.7112 217.719 29.8953 217.72H98.9936C100.178 217.719 101.313 217.249 102.15 216.414C102.987 215.578 103.459 214.446 103.46 213.265V127.492L92.0783 117.356ZM102.934 213.266C102.933 214.308 102.517 215.308 101.778 216.045C101.04 216.782 100.038 217.196 98.993 217.197H29.8953C28.8504 217.196 27.8487 216.782 27.1098 216.045C26.371 215.308 25.9554 214.308 25.9542 213.266V121.812C25.9552 120.946 26.2428 120.103 26.7724 119.416C27.302 118.729 28.044 118.236 28.8835 118.012C29.2132 117.925 29.553 117.881 29.8942 117.881H91.8784L102.934 127.727V213.266ZM27.5674 118.011C26.9144 118.409 26.3747 118.967 26.0002 119.632C25.6257 120.298 25.4289 121.048 25.4286 121.811V122.466H25.9542V121.811C25.9552 120.944 26.2428 120.102 26.7724 119.415C27.302 118.728 28.044 118.235 28.8835 118.011H27.5674Z" fill="#3F3D56"/>
<path d="M103.197 127.838H96.103C94.9189 127.837 93.7837 127.367 92.9463 126.532C92.109 125.697 91.6379 124.565 91.6364 123.384V117.618C91.6364 117.549 91.6641 117.482 91.7134 117.433C91.7627 117.384 91.8295 117.356 91.8992 117.356C91.9689 117.356 92.0357 117.384 92.085 117.433C92.1343 117.482 92.162 117.549 92.162 117.618V123.383C92.1631 124.425 92.5787 125.424 93.3176 126.161C94.0564 126.898 95.0581 127.313 96.103 127.314H103.197C103.231 127.314 103.266 127.321 103.297 127.334C103.329 127.347 103.358 127.366 103.383 127.391C103.407 127.415 103.426 127.444 103.44 127.476C103.453 127.508 103.46 127.542 103.46 127.576C103.46 127.61 103.453 127.645 103.44 127.676C103.426 127.708 103.407 127.737 103.383 127.761C103.358 127.786 103.329 127.805 103.297 127.818C103.266 127.831 103.231 127.838 103.197 127.838Z" fill="#3F3D56"/>
</g>
<defs>
<clipPath id="clip0_29_395">
<rect width="449" height="379" fill="white"/>
</clipPath>
</defs>
</svg>
